<svg width="252" height="94" viewBox="0 0 252 94" fill="none" xmlns="http://www.w3.org/2000/svg">
<path fill-rule="evenodd" clip-rule="evenodd" d="M26.7119 47L18.9092 94H55.2728C64.7274 94 73.1668 92.2121 80.591 88.6364C84.7754 86.6292 88.5397 84.1208 91.8839 81.1111L89.7441 94H126.108C135.562 94 144.002 92.2121 151.426 88.6364C155.61 86.6292 159.375 84.1208 162.719 81.1111L160.579 94H196.943C206.397 94 214.837 92.2121 222.261 88.6364C229.715 85.0606 235.837 79.8939 240.625 73.1364C245.443 66.3788 248.64 58.2424 250.215 48.7273C251.852 38.8485 251.322 30.3333 248.625 23.1818C245.928 16.0303 241.367 10.5303 234.943 6.68182C228.518 2.83333 220.518 0.909088 210.943 0.909088H176.845L169 47H154.333C153.233 53.28 151.506 58.2649 149.153 61.9545C146.729 65.7727 143.699 68.5 140.062 70.1364C136.456 71.7424 132.35 72.5455 127.744 72.5455H118.562L122.82 47H83.4979C82.3981 53.28 80.6715 58.2649 78.3183 61.9545C75.894 65.7727 72.8637 68.5 69.2274 70.1364C65.6213 71.7424 61.5152 72.5455 56.9092 72.5455H47.7274L51.9849 47H26.7119ZM198.579 72.5455H189.397L197.761 22.3636H207.125C211.973 22.3636 215.928 23.0455 218.988 24.4091C222.049 25.7424 224.125 28.1364 225.215 31.5909C226.306 35.0152 226.337 39.8788 225.306 46.1818C224.215 52.8485 222.443 58.1061 219.988 61.9545C217.564 65.7727 214.534 68.5 210.897 70.1364C207.291 71.7424 203.185 72.5455 198.579 72.5455Z" fill="#3E5FDD"/>
<path d="M165.912 1.09091L160.117 36H152.208L142.662 17.6591H142.458L139.389 36H129.912L135.708 1.09091H143.753L153.162 19.3636H153.435L156.435 1.09091H165.912Z" fill="#353535"/>
<path d="M100.777 36H90.5498L107.868 1.09091H120.823L126.55 36H116.323L112.913 10.7045H112.641L100.777 36ZM101.186 22.2273H120.413L119.186 29.3182H99.9589L101.186 22.2273Z" fill="#353535"/>
<path d="M61.8496 36L67.6451 1.09091H92.8042L91.5087 8.72728H75.8269L74.8723 14.7273H89.2587L87.9632 22.3636H73.5769L72.6223 28.3636H88.236L86.9405 36H61.8496Z" fill="#353535"/>
<path d="M34.4277 36L40.2232 1.09091H49.7005L45.2005 28.3636H59.3141L58.0186 36H34.4277Z" fill="#353535"/>
<path d="M33.7077 14.1818H24.2304C24.2986 13.375 24.2531 12.6477 24.094 12C23.9349 11.3523 23.6622 10.7955 23.2758 10.3296C22.8895 9.85228 22.3838 9.48865 21.7588 9.23865C21.1338 8.98865 20.3895 8.86365 19.5258 8.86365C17.8667 8.86365 16.3838 9.27842 15.077 10.108C13.7702 10.9261 12.6849 12.1023 11.8213 13.6364C10.9577 15.1591 10.344 16.9773 9.98038 19.0909C9.6622 21.1364 9.65084 22.8352 9.94629 24.1875C10.2531 25.5398 10.8497 26.5511 11.7361 27.2216C12.6338 27.8921 13.7986 28.2273 15.2304 28.2273C16.1849 28.2273 17.0599 28.1136 17.8554 27.8864C18.6622 27.6591 19.3781 27.3352 20.0031 26.9148C20.6395 26.483 21.1792 25.9716 21.6224 25.3807C22.077 24.7784 22.4236 24.1136 22.6622 23.3864H32.2077C31.844 24.8636 31.1963 26.375 30.2645 27.9205C29.3327 29.4546 28.1281 30.8693 26.6508 32.1648C25.1736 33.4489 23.4349 34.4886 21.4349 35.2841C19.4349 36.0796 17.1849 36.4773 14.6849 36.4773C11.4122 36.4773 8.58834 35.7614 6.21334 34.3296C3.8497 32.8977 2.13379 30.8068 1.06561 28.0568C0.00879103 25.3068 -0.201436 21.9546 0.434927 18C1.07129 14.1818 2.32697 10.983 4.20197 8.40342C6.07697 5.82387 8.35538 3.88069 11.0372 2.57387C13.719 1.26706 16.5713 0.613647 19.594 0.613647C21.8781 0.613647 23.9236 0.914783 25.7304 1.51706C27.5486 2.11933 29.077 3.00001 30.3156 4.1591C31.5656 5.30683 32.4861 6.7216 33.077 8.40342C33.6679 10.0852 33.8781 12.0114 33.7077 14.1818Z" fill="#353535"/>
</svg>
